<svg xmlns="http://www.w3.org/2000/svg" xmlns:xlink="http://www.w3.org/1999/xlink" width="107" zoomAndPan="magnify" viewBox="0 0 80.25 30.000001" height="40" preserveAspectRatio="xMidYMid meet" version="1.0"><defs><g/><clipPath id="ae400f1a11"><path d="M 6.441406 7.992188 L 19.070312 7.992188 L 19.070312 22.101562 L 6.441406 22.101562 Z M 6.441406 7.992188 " clip-rule="nonzero"/></clipPath><clipPath id="c70e9564b7"><path d="M 8 6.859375 L 13 6.859375 L 13 16 L 8 16 Z M 8 6.859375 " clip-rule="nonzero"/></clipPath><clipPath id="35ee96d0a7"><path d="M 3.84375 9.308594 L 16.738281 9.308594 L 16.738281 22.101562 L 3.84375 22.101562 Z M 3.84375 9.308594 " clip-rule="nonzero"/></clipPath></defs><g clip-path="url(#ae400f1a11)"><path fill="#292b6b" d="M 11.738281 9.3125 L 11.738281 8.761719 C 11.738281 8.636719 11.632812 8.53125 11.507812 8.53125 C 11.378906 8.53125 11.273438 8.636719 11.273438 8.761719 L 11.273438 9.3125 Z M 14.859375 18.722656 L 14.160156 18.722656 L 13.816406 21.644531 L 14.136719 21.644531 Z M 12.78125 21.644531 L 13.351562 21.644531 L 13.695312 18.722656 L 12.945312 18.722656 Z M 15.378906 18.546875 L 14.542969 21.925781 C 14.519531 22.03125 14.425781 22.101562 14.316406 22.101562 L 11.507812 22.101562 C 11.378906 22.101562 11.273438 22 11.273438 21.871094 C 11.273438 21.746094 11.378906 21.644531 11.507812 21.644531 L 12.316406 21.644531 L 12.480469 18.722656 L 10.597656 18.722656 C 10.46875 18.722656 10.367188 18.617188 10.367188 18.492188 C 10.367188 18.367188 10.46875 18.261719 10.597656 18.261719 L 15.152344 18.261719 C 15.226562 18.261719 15.292969 18.296875 15.335938 18.351562 C 15.378906 18.40625 15.394531 18.476562 15.378906 18.546875 Z M 18.839844 13.105469 L 18.652344 13.105469 L 18.652344 12.921875 C 18.652344 12.796875 18.546875 12.691406 18.421875 12.691406 C 18.292969 12.691406 18.1875 12.796875 18.1875 12.921875 L 18.1875 13.105469 L 18.003906 13.105469 C 17.875 13.105469 17.769531 13.210938 17.769531 13.335938 C 17.769531 13.460938 17.875 13.566406 18.003906 13.566406 L 18.1875 13.566406 L 18.1875 13.75 C 18.1875 13.875 18.292969 13.980469 18.421875 13.980469 C 18.546875 13.980469 18.652344 13.875 18.652344 13.75 L 18.652344 13.566406 L 18.839844 13.566406 C 18.96875 13.566406 19.070312 13.460938 19.070312 13.335938 C 19.070312 13.210938 18.96875 13.105469 18.839844 13.105469 Z M 7.140625 8.558594 C 7.140625 8.617188 7.09375 8.664062 7.035156 8.664062 C 6.972656 8.664062 6.925781 8.617188 6.925781 8.558594 C 6.925781 8.5 6.972656 8.453125 7.035156 8.453125 C 7.09375 8.453125 7.140625 8.5 7.140625 8.558594 Z M 7.605469 8.558594 C 7.605469 8.246094 7.347656 7.992188 7.035156 7.992188 C 6.71875 7.992188 6.460938 8.246094 6.460938 8.558594 C 6.460938 8.871094 6.71875 9.125 7.035156 9.125 C 7.347656 9.125 7.605469 8.871094 7.605469 8.558594 Z M 14.371094 14.089844 C 14.3125 14.089844 14.253906 14.066406 14.207031 14.023438 L 13.699219 13.519531 C 13.609375 13.429688 13.609375 13.28125 13.699219 13.191406 C 13.789062 13.105469 13.9375 13.105469 14.027344 13.191406 L 14.535156 13.695312 C 14.628906 13.785156 14.628906 13.933594 14.535156 14.023438 C 14.492188 14.066406 14.433594 14.089844 14.371094 14.089844 " fill-opacity="1" fill-rule="nonzero"/></g><path fill="#e51953" d="M 14.640625 13.179688 C 14.644531 13.183594 14.644531 13.1875 14.648438 13.1875 C 14.699219 13.253906 14.746094 13.324219 14.785156 13.394531 C 14.785156 13.394531 14.785156 13.398438 14.785156 13.398438 C 14.910156 13.625 14.976562 13.878906 14.976562 14.136719 C 14.976562 14.386719 14.914062 14.632812 14.796875 14.855469 C 14.839844 14.835938 14.863281 14.828125 14.867188 14.824219 C 14.867188 14.824219 14.867188 14.824219 14.871094 14.824219 C 14.875 14.824219 14.878906 14.820312 14.882812 14.820312 C 14.886719 14.816406 14.890625 14.816406 14.894531 14.816406 C 14.898438 14.816406 14.902344 14.8125 14.90625 14.8125 C 14.910156 14.8125 14.914062 14.8125 14.914062 14.8125 C 14.917969 14.808594 14.925781 14.808594 14.929688 14.808594 C 14.933594 14.808594 14.933594 14.808594 14.9375 14.808594 C 14.941406 14.808594 14.945312 14.804688 14.949219 14.804688 C 14.953125 14.804688 14.957031 14.804688 14.960938 14.804688 C 14.964844 14.804688 14.96875 14.804688 14.972656 14.804688 C 14.976562 14.804688 14.980469 14.808594 14.984375 14.808594 C 14.988281 14.808594 14.988281 14.808594 14.992188 14.808594 C 15.097656 14.820312 15.199219 14.84375 15.296875 14.871094 C 15.390625 14.640625 15.441406 14.390625 15.441406 14.136719 C 15.441406 13.804688 15.355469 13.476562 15.195312 13.183594 C 15.195312 13.179688 15.195312 13.175781 15.191406 13.175781 C 15.144531 13.085938 15.085938 12.996094 15.019531 12.914062 C 14.078125 11.5625 13.101562 11.269531 13.058594 11.253906 C 12.972656 11.230469 12.875 11.257812 12.816406 11.328125 C 12.757812 11.398438 12.746094 11.496094 12.785156 11.578125 C 12.808594 11.617188 12.808594 11.648438 12.792969 11.6875 C 12.730469 11.847656 12.433594 12.03125 12.21875 12.121094 L 9.613281 12.121094 C 8.488281 12.121094 7.574219 13.023438 7.574219 14.136719 C 7.574219 14.390625 7.621094 14.640625 7.714844 14.871094 C 6.882812 15.113281 6.289062 15.878906 6.289062 16.757812 C 6.289062 17.625 6.859375 18.359375 7.652344 18.621094 L 7.632812 18.546875 C 7.617188 18.476562 7.632812 18.40625 7.675781 18.351562 C 7.71875 18.296875 7.785156 18.261719 7.859375 18.261719 L 8.277344 18.261719 C 7.4375 18.261719 6.753906 17.585938 6.753906 16.757812 C 6.753906 16.015625 7.304688 15.382812 8.039062 15.269531 C 8.171875 15.300781 8.566406 15.394531 9.121094 15.488281 C 9.132812 15.488281 9.148438 15.488281 9.160156 15.488281 C 9.269531 15.488281 9.367188 15.410156 9.386719 15.296875 C 9.410156 15.171875 9.324219 15.054688 9.199219 15.035156 C 8.726562 14.957031 8.367188 14.875 8.207031 14.835938 C 8.09375 14.621094 8.035156 14.378906 8.035156 14.136719 C 8.035156 13.277344 8.742188 12.578125 9.613281 12.578125 L 12.265625 12.578125 C 12.292969 12.578125 12.320312 12.574219 12.347656 12.5625 C 12.421875 12.535156 13.058594 12.277344 13.226562 11.855469 C 13.226562 11.847656 13.230469 11.839844 13.234375 11.832031 C 13.558594 12.011719 14.101562 12.398438 14.640625 13.179688 Z M 18.078125 8.914062 C 18.019531 8.914062 17.972656 8.960938 17.972656 9.019531 C 17.972656 9.078125 18.019531 9.125 18.078125 9.125 C 18.136719 9.125 18.1875 9.078125 18.1875 9.019531 C 18.1875 8.960938 18.136719 8.914062 18.078125 8.914062 Z M 18.078125 9.582031 C 17.765625 9.582031 17.507812 9.332031 17.507812 9.019531 C 17.507812 8.707031 17.765625 8.453125 18.078125 8.453125 C 18.394531 8.453125 18.652344 8.707031 18.652344 9.019531 C 18.652344 9.332031 18.394531 9.582031 18.078125 9.582031 Z M 5.945312 13.894531 C 5.886719 13.894531 5.835938 13.941406 5.835938 14 C 5.835938 14.058594 5.886719 14.105469 5.945312 14.105469 C 6.003906 14.105469 6.050781 14.058594 6.050781 14 C 6.050781 13.941406 6.003906 13.894531 5.945312 13.894531 Z M 5.945312 14.5625 C 5.628906 14.5625 5.375 14.308594 5.375 14 C 5.375 13.6875 5.628906 13.433594 5.945312 13.433594 C 6.257812 13.433594 6.515625 13.6875 6.515625 14 C 6.515625 14.308594 6.261719 14.5625 5.945312 14.5625 " fill-opacity="1" fill-rule="nonzero"/><g clip-path="url(#c70e9564b7)"><path fill="#f2cb1c" d="M 12.78125 13.746094 C 12.871094 13.65625 12.871094 13.511719 12.78125 13.421875 L 12.273438 12.917969 C 12.183594 12.828125 12.035156 12.828125 11.945312 12.917969 C 11.855469 13.007812 11.855469 13.152344 11.945312 13.242188 L 12.453125 13.746094 C 12.5 13.789062 12.558594 13.8125 12.617188 13.8125 C 12.675781 13.8125 12.738281 13.792969 12.78125 13.746094 Z M 9.269531 10.085938 L 9.085938 10.085938 L 9.085938 9.902344 C 9.085938 9.777344 8.980469 9.671875 8.851562 9.671875 C 8.726562 9.671875 8.621094 9.777344 8.621094 9.902344 L 8.621094 10.085938 L 8.433594 10.085938 C 8.304688 10.085938 8.203125 10.191406 8.203125 10.316406 C 8.203125 10.445312 8.304688 10.546875 8.433594 10.546875 L 8.621094 10.546875 L 8.621094 10.730469 C 8.621094 10.855469 8.726562 10.960938 8.851562 10.960938 C 8.980469 10.960938 9.085938 10.855469 9.085938 10.730469 L 9.085938 10.546875 L 9.269531 10.546875 C 9.398438 10.546875 9.503906 10.445312 9.503906 10.316406 C 9.503906 10.191406 9.398438 10.085938 9.269531 10.085938 Z M 12.339844 15.425781 C 12.332031 15.300781 12.21875 15.203125 12.09375 15.214844 C 11.035156 15.285156 9.933594 15.15625 9.199219 15.035156 C 9.324219 15.054688 9.410156 15.171875 9.386719 15.296875 C 9.367188 15.410156 9.269531 15.488281 9.160156 15.488281 C 9.148438 15.488281 9.132812 15.488281 9.121094 15.488281 C 9.726562 15.585938 10.574219 15.695312 11.453125 15.695312 C 11.675781 15.695312 11.902344 15.6875 12.125 15.671875 C 12.253906 15.664062 12.347656 15.550781 12.339844 15.425781 Z M 12.625 8.699219 C 12.597656 8.800781 12.503906 8.867188 12.402344 8.867188 C 12.378906 8.867188 12.359375 8.863281 12.339844 8.855469 C 12.214844 8.824219 12.144531 8.695312 12.175781 8.574219 C 12.1875 8.539062 12.363281 7.816406 11.507812 7.34375 C 11.144531 7.542969 10.921875 7.804688 10.84375 8.128906 C 10.785156 8.375 10.832031 8.574219 10.835938 8.574219 C 10.867188 8.695312 10.796875 8.824219 10.671875 8.855469 C 10.652344 8.863281 10.632812 8.867188 10.609375 8.867188 C 10.507812 8.867188 10.414062 8.800781 10.386719 8.699219 C 10.273438 8.296875 10.339844 7.398438 11.394531 6.882812 C 11.429688 6.867188 11.46875 6.859375 11.503906 6.859375 C 11.542969 6.859375 11.582031 6.867188 11.617188 6.882812 C 12.671875 7.398438 12.738281 8.296875 12.625 8.699219 " fill-opacity="1" fill-rule="nonzero"/></g><g clip-path="url(#35ee96d0a7)"><path fill="#53c5b3" d="M 12.976562 15.09375 L 13.484375 14.589844 C 13.578125 14.5 13.578125 14.351562 13.484375 14.265625 C 13.394531 14.175781 13.25 14.175781 13.15625 14.265625 L 12.648438 14.765625 C 12.558594 14.855469 12.558594 15.003906 12.648438 15.09375 C 12.691406 15.136719 12.753906 15.160156 12.8125 15.160156 C 12.871094 15.160156 12.929688 15.136719 12.976562 15.09375 Z M 11.214844 12.121094 L 11.214844 9.773438 L 11.796875 9.773438 L 11.796875 12.121094 L 12.21875 12.121094 C 12.230469 12.113281 12.246094 12.109375 12.257812 12.101562 L 12.257812 9.542969 C 12.257812 9.417969 12.15625 9.3125 12.027344 9.3125 L 10.984375 9.3125 C 10.855469 9.3125 10.753906 9.417969 10.753906 9.542969 L 10.753906 12.121094 Z M 14.992188 14.808594 C 14.988281 14.808594 14.984375 14.808594 14.984375 14.808594 C 14.980469 14.808594 14.976562 14.804688 14.972656 14.804688 C 14.96875 14.804688 14.964844 14.804688 14.960938 14.804688 C 14.957031 14.804688 14.953125 14.804688 14.949219 14.804688 C 14.945312 14.804688 14.941406 14.808594 14.9375 14.808594 C 14.933594 14.808594 14.929688 14.808594 14.929688 14.808594 C 14.921875 14.808594 14.917969 14.808594 14.914062 14.8125 C 14.910156 14.8125 14.910156 14.8125 14.90625 14.8125 C 14.902344 14.8125 14.894531 14.816406 14.890625 14.816406 C 14.890625 14.816406 14.886719 14.816406 14.882812 14.820312 C 14.878906 14.820312 14.875 14.824219 14.871094 14.824219 C 14.867188 14.824219 14.867188 14.824219 14.863281 14.824219 C 14.863281 14.828125 14.511719 14.984375 14.160156 15.023438 C 14.03125 15.035156 13.941406 15.148438 13.953125 15.273438 C 13.96875 15.390625 14.066406 15.480469 14.183594 15.480469 C 14.195312 15.480469 14.203125 15.476562 14.210938 15.476562 C 14.542969 15.441406 14.859375 15.324219 14.992188 15.273438 C 15.71875 15.394531 16.257812 16.023438 16.257812 16.757812 C 16.257812 17.585938 15.574219 18.261719 14.734375 18.261719 L 15.152344 18.261719 C 15.226562 18.261719 15.292969 18.296875 15.335938 18.351562 C 15.378906 18.40625 15.394531 18.476562 15.378906 18.546875 L 15.359375 18.621094 C 16.152344 18.359375 16.722656 17.625 16.722656 16.757812 C 16.722656 15.773438 15.976562 14.933594 14.992188 14.808594 Z M 8.875 21.644531 L 9.195312 21.644531 L 8.851562 18.722656 L 8.152344 18.722656 Z M 10.066406 18.722656 L 9.316406 18.722656 L 9.664062 21.644531 L 10.230469 21.644531 Z M 11.738281 18.722656 L 11.738281 21.644531 L 11.507812 21.644531 C 11.5 21.644531 11.492188 21.644531 11.484375 21.644531 C 11.480469 21.644531 11.480469 21.644531 11.476562 21.644531 C 11.472656 21.644531 11.464844 21.644531 11.460938 21.648438 C 11.457031 21.648438 11.457031 21.648438 11.453125 21.648438 C 11.449219 21.648438 11.445312 21.652344 11.441406 21.652344 C 11.4375 21.652344 11.433594 21.652344 11.429688 21.65625 C 11.429688 21.65625 11.425781 21.65625 11.421875 21.660156 C 11.417969 21.660156 11.414062 21.660156 11.410156 21.664062 C 11.40625 21.664062 11.40625 21.667969 11.402344 21.667969 C 11.398438 21.667969 11.394531 21.671875 11.390625 21.671875 C 11.390625 21.675781 11.386719 21.675781 11.382812 21.675781 C 11.378906 21.679688 11.375 21.679688 11.375 21.683594 C 11.371094 21.6875 11.367188 21.6875 11.367188 21.6875 C 11.363281 21.691406 11.359375 21.695312 11.355469 21.695312 C 11.355469 21.699219 11.355469 21.699219 11.355469 21.699219 C 11.335938 21.714844 11.320312 21.734375 11.304688 21.757812 C 11.300781 21.761719 11.300781 21.769531 11.296875 21.773438 C 11.296875 21.773438 11.296875 21.773438 11.296875 21.777344 C 11.292969 21.78125 11.289062 21.785156 11.289062 21.792969 C 11.285156 21.800781 11.285156 21.804688 11.28125 21.8125 C 11.28125 21.820312 11.277344 21.828125 11.277344 21.832031 C 11.273438 21.84375 11.273438 21.859375 11.273438 21.871094 C 11.273438 22 11.378906 22.101562 11.503906 22.101562 L 8.695312 22.101562 C 8.585938 22.101562 8.496094 22.03125 8.46875 21.925781 L 7.632812 18.546875 C 7.613281 18.476562 7.628906 18.40625 7.675781 18.351562 C 7.71875 18.296875 7.785156 18.261719 7.855469 18.261719 L 10.597656 18.261719 C 10.507812 18.261719 10.429688 18.3125 10.390625 18.386719 C 10.386719 18.394531 10.382812 18.402344 10.382812 18.410156 C 10.382812 18.410156 10.378906 18.414062 10.378906 18.414062 C 10.378906 18.421875 10.375 18.425781 10.375 18.433594 C 10.375 18.4375 10.371094 18.4375 10.371094 18.441406 C 10.371094 18.445312 10.371094 18.453125 10.367188 18.460938 C 10.367188 18.460938 10.367188 18.464844 10.367188 18.464844 C 10.367188 18.476562 10.367188 18.484375 10.367188 18.492188 C 10.367188 18.503906 10.367188 18.515625 10.367188 18.527344 C 10.371094 18.527344 10.371094 18.53125 10.371094 18.535156 C 10.371094 18.542969 10.375 18.554688 10.378906 18.566406 C 10.378906 18.566406 10.378906 18.566406 10.378906 18.570312 C 10.382812 18.578125 10.386719 18.589844 10.390625 18.597656 C 10.394531 18.601562 10.394531 18.601562 10.394531 18.601562 C 10.398438 18.609375 10.40625 18.621094 10.410156 18.628906 C 10.410156 18.628906 10.414062 18.632812 10.414062 18.632812 C 10.421875 18.640625 10.429688 18.648438 10.4375 18.65625 C 10.4375 18.65625 10.4375 18.660156 10.4375 18.660156 C 10.445312 18.667969 10.453125 18.671875 10.464844 18.679688 C 10.472656 18.6875 10.484375 18.691406 10.496094 18.699219 C 10.496094 18.699219 10.496094 18.699219 10.5 18.699219 C 10.507812 18.703125 10.519531 18.707031 10.53125 18.710938 C 10.550781 18.71875 10.574219 18.722656 10.597656 18.722656 L 10.53125 18.722656 L 10.695312 21.644531 L 11.273438 21.644531 L 11.273438 18.722656 Z M 15.964844 11.394531 L 15.777344 11.394531 L 15.777344 11.210938 C 15.777344 11.082031 15.671875 10.980469 15.542969 10.980469 C 15.417969 10.980469 15.3125 11.082031 15.3125 11.210938 L 15.3125 11.394531 L 15.125 11.394531 C 15 11.394531 14.894531 11.496094 14.894531 11.621094 C 14.894531 11.75 15 11.851562 15.125 11.851562 L 15.3125 11.851562 L 15.3125 12.035156 C 15.3125 12.164062 15.417969 12.265625 15.542969 12.265625 C 15.671875 12.265625 15.777344 12.164062 15.777344 12.035156 L 15.777344 11.851562 L 15.964844 11.851562 C 16.089844 11.851562 16.195312 11.75 16.195312 11.621094 C 16.195312 11.496094 16.089844 11.394531 15.964844 11.394531 Z M 5.140625 11.664062 C 5.140625 11.789062 5.039062 11.890625 4.910156 11.890625 L 4.722656 11.890625 L 4.722656 12.078125 C 4.722656 12.203125 4.621094 12.304688 4.492188 12.304688 C 4.363281 12.304688 4.261719 12.203125 4.261719 12.078125 L 4.261719 11.890625 L 4.074219 11.890625 C 3.945312 11.890625 3.84375 11.789062 3.84375 11.664062 C 3.84375 11.535156 3.945312 11.433594 4.074219 11.433594 L 4.261719 11.433594 L 4.261719 11.25 C 4.261719 11.121094 4.363281 11.019531 4.492188 11.019531 C 4.621094 11.019531 4.722656 11.121094 4.722656 11.25 L 4.722656 11.433594 L 4.910156 11.433594 C 5.039062 11.433594 5.140625 11.535156 5.140625 11.664062 " fill-opacity="1" fill-rule="nonzero"/></g><g fill="#000000" fill-opacity="1"><g transform="translate(23.112889, 20.577075)"><g><path d="M 2.550781 0 C 2.75 0 2.894531 -0.144531 2.894531 -0.347656 L 2.894531 -0.382812 C 2.804688 -1.820312 2.769531 -3.203125 2.769531 -4.644531 L 2.769531 -5.480469 C 6.246094 -7.285156 7.777344 -9.214844 7.777344 -10.691406 C 7.777344 -12.128906 6.355469 -13.09375 3.859375 -13.09375 L 3.550781 -13.09375 C 3.460938 -13.09375 3.351562 -13.09375 3.242188 -13.074219 C 3.257812 -13.167969 3.277344 -13.238281 3.277344 -13.367188 C 3.332031 -13.585938 3.152344 -13.765625 2.933594 -13.765625 C 2.730469 -13.765625 2.585938 -13.640625 2.566406 -13.4375 L 2.511719 -13.003906 C 1.984375 -12.929688 1.457031 -12.800781 0.890625 -12.636719 C 0.726562 -12.582031 0.636719 -12.472656 0.636719 -12.273438 C 0.636719 -12.238281 0.636719 -12.199219 0.65625 -12.183594 C 0.710938 -12.019531 0.835938 -11.929688 1 -11.929688 C 1.054688 -11.929688 1.09375 -11.929688 1.109375 -11.945312 C 1.546875 -12.074219 1.984375 -12.183594 2.421875 -12.253906 C 2.203125 -10.160156 2.074219 -8.066406 2.039062 -5.9375 C 1.421875 -5.628906 0.765625 -5.335938 0.0742188 -5.0625 C -0.0898438 -5.007812 -0.164062 -4.878906 -0.164062 -4.714844 C -0.164062 -4.660156 -0.164062 -4.605469 -0.144531 -4.589844 C -0.0742188 -4.425781 0.0351562 -4.351562 0.199219 -4.351562 C 0.382812 -4.351562 1.820312 -5.027344 2.019531 -5.117188 C 2.019531 -3.515625 2.039062 -1.929688 2.167969 -0.328125 C 2.183594 -0.128906 2.332031 0 2.53125 0 Z M 2.769531 -6.320312 C 2.824219 -8.339844 2.949219 -10.324219 3.167969 -12.347656 C 3.441406 -12.363281 3.679688 -12.382812 3.914062 -12.382812 C 5.972656 -12.382812 7.046875 -11.671875 7.046875 -10.636719 C 7.046875 -9.46875 5.683594 -7.867188 2.769531 -6.320312 Z M 2.769531 -6.320312 "/></g></g></g><g fill="#000000" fill-opacity="1"><g transform="translate(30.63024, 20.577075)"><g><path d="M -0.0546875 -2.585938 C 0.109375 -2.476562 0.292969 -2.421875 0.492188 -2.421875 C 1.164062 -2.421875 1.949219 -3.203125 2.367188 -3.878906 C 2.3125 -3.023438 2.714844 -2.421875 3.351562 -2.421875 C 4.078125 -2.421875 5.136719 -3.203125 6.300781 -5.335938 C 6.320312 -5.410156 6.335938 -5.464844 6.335938 -5.5 C 6.335938 -5.644531 6.265625 -5.753906 6.136719 -5.828125 C 6.101562 -5.84375 6.046875 -5.863281 5.972656 -5.863281 C 5.828125 -5.863281 5.71875 -5.808594 5.644531 -5.683594 C 5.0625 -4.515625 3.988281 -3.167969 3.460938 -3.167969 C 3.257812 -3.167969 3.152344 -3.332031 3.152344 -3.824219 C 3.152344 -4.0625 3.167969 -4.351562 3.242188 -4.714844 C 3.296875 -5.097656 3.367188 -5.480469 3.496094 -5.828125 C 3.585938 -6.101562 3.421875 -6.335938 3.152344 -6.335938 C 3.023438 -6.335938 2.914062 -6.265625 2.824219 -6.117188 C 2.386719 -5.28125 1.675781 -3.898438 0.929688 -3.351562 C 0.765625 -3.222656 0.636719 -3.167969 0.511719 -3.167969 C 0.308594 -3.167969 0.21875 -3.3125 0.21875 -3.625 C 0.21875 -4.570312 1.292969 -6.683594 3.242188 -6.683594 C 3.441406 -6.683594 3.605469 -6.847656 3.605469 -7.046875 C 3.605469 -7.246094 3.441406 -7.410156 3.242188 -7.410156 C 0.964844 -7.410156 -0.492188 -5.097656 -0.492188 -3.625 C -0.492188 -3.167969 -0.347656 -2.785156 -0.0546875 -2.585938 Z M -0.0546875 -2.585938 "/></g></g></g><g fill="#000000" fill-opacity="1"><g transform="translate(36.072581, 20.577075)"><g><path d="M 0.363281 -2.566406 C 0.566406 -2.566406 0.726562 -2.714844 0.726562 -2.914062 C 0.820312 -4.863281 2.714844 -7.011719 3.660156 -6.828125 C 3.859375 -6.773438 4.023438 -6.902344 4.078125 -7.101562 C 4.132812 -7.300781 4.007812 -7.484375 3.804688 -7.539062 C 3.679688 -7.558594 3.585938 -7.574219 3.515625 -7.574219 C 2.496094 -7.574219 1.421875 -6.390625 0.890625 -5.519531 C 0.945312 -6.046875 0.964844 -6.59375 0.964844 -7.15625 C 0.964844 -7.355469 0.800781 -7.519531 0.601562 -7.519531 C 0.402344 -7.519531 0.238281 -7.355469 0.238281 -7.15625 C 0.21875 -5.773438 0.0195312 -4.371094 0 -2.933594 C 0 -2.730469 0.164062 -2.585938 0.363281 -2.566406 Z M 0.363281 -2.566406 "/></g></g></g><g fill="#000000" fill-opacity="1"><g transform="translate(40.277199, 20.577075)"><g><path d="M 0.726562 -2.332031 C 0.929688 -2.332031 1.074219 -2.511719 1.074219 -2.714844 C 1.019531 -3.714844 1 -4.660156 1 -5.589844 C 1 -7.792969 1.128906 -9.851562 1.402344 -11.875 L 5.644531 -11.984375 C 5.84375 -11.984375 6.007812 -12.144531 6.007812 -12.347656 C 6.007812 -12.546875 5.84375 -12.710938 5.628906 -12.710938 L 1.492188 -12.601562 C 1.621094 -13.402344 1.765625 -14.1875 1.910156 -14.96875 C 1.964844 -15.1875 1.804688 -15.40625 1.566406 -15.40625 C 1.382812 -15.40625 1.257812 -15.316406 1.203125 -15.113281 C 1.039062 -14.296875 0.890625 -13.457031 0.765625 -12.601562 L -2.566406 -12.492188 C -2.769531 -12.492188 -2.914062 -12.363281 -2.914062 -12.164062 L -2.914062 -12.128906 C -2.914062 -11.929688 -2.75 -11.765625 -2.550781 -11.765625 L 0.65625 -11.855469 C 0.402344 -9.851562 0.273438 -7.757812 0.273438 -5.589844 C 0.273438 -4.644531 0.292969 -3.695312 0.347656 -2.675781 C 0.347656 -2.476562 0.511719 -2.332031 0.710938 -2.332031 Z M 0.726562 -2.332031 "/></g></g></g><g fill="#000000" fill-opacity="1"><g transform="translate(43.699142, 20.577075)"><g><path d="M 2.949219 3.75 C 3.585938 2.386719 3.933594 0.546875 4.132812 -0.945312 L 6.226562 -3.042969 C 6.9375 -3.75 7.558594 -4.515625 8.105469 -5.355469 C 8.140625 -5.410156 8.160156 -5.464844 8.160156 -5.535156 C 8.160156 -5.664062 8.105469 -5.773438 7.996094 -5.84375 C 7.941406 -5.882812 7.867188 -5.898438 7.777344 -5.898438 C 7.648438 -5.898438 7.539062 -5.84375 7.484375 -5.753906 C 6.609375 -4.390625 5.425781 -3.242188 4.261719 -2.09375 C 4.390625 -3.1875 4.40625 -4.261719 4.40625 -5.207031 C 4.40625 -5.9375 4.390625 -6.574219 4.335938 -7.101562 C 4.316406 -7.300781 4.171875 -7.429688 4.007812 -7.429688 C 3.804688 -7.449219 3.679688 -7.355469 3.625 -7.15625 C 3.132812 -5.171875 2.058594 -3.640625 1.203125 -3.460938 C 0.820312 -3.386719 0.65625 -3.640625 0.65625 -4.132812 C 0.65625 -4.734375 0.910156 -5.644531 1.367188 -6.574219 C 1.382812 -6.609375 1.382812 -6.664062 1.382812 -6.71875 C 1.382812 -6.921875 1.257812 -7.101562 1.019531 -7.101562 C 0.875 -7.101562 0.765625 -7.027344 0.710938 -6.902344 C 0.144531 -5.753906 -0.0742188 -4.84375 -0.0742188 -4.171875 C -0.0742188 -3.203125 0.382812 -2.714844 1.019531 -2.714844 C 1.820312 -2.714844 2.894531 -3.496094 3.679688 -5.152344 C 3.679688 -3.914062 3.605469 -2.605469 3.441406 -1.292969 C 0.984375 1.164062 0.144531 3.152344 0.144531 4.316406 C 0.144531 5.097656 0.527344 5.519531 1.039062 5.519531 C 1.621094 5.519531 2.386719 4.972656 2.949219 3.75 Z M 0.945312 4.714844 C 0.910156 4.644531 0.890625 4.535156 0.890625 4.390625 C 0.890625 4.042969 1 3.53125 1.347656 2.785156 C 1.65625 2.128906 2.222656 1.164062 3.257812 -0.0195312 C 2.476562 4.679688 1.039062 4.953125 0.945312 4.714844 Z M 0.945312 4.714844 "/></g></g></g><g fill="#000000" fill-opacity="1"><g transform="translate(50.943462, 20.577075)"><g/></g></g><g fill="#000000" fill-opacity="1"><g transform="translate(54.583824, 20.577075)"><g><path d="M 2.550781 0 C 2.75 0 2.894531 -0.144531 2.894531 -0.347656 L 2.894531 -0.382812 C 2.804688 -1.820312 2.769531 -3.203125 2.769531 -4.644531 L 2.769531 -5.480469 C 6.246094 -7.285156 7.777344 -9.214844 7.777344 -10.691406 C 7.777344 -12.128906 6.355469 -13.09375 3.859375 -13.09375 L 3.550781 -13.09375 C 3.460938 -13.09375 3.351562 -13.09375 3.242188 -13.074219 C 3.257812 -13.167969 3.277344 -13.238281 3.277344 -13.367188 C 3.332031 -13.585938 3.152344 -13.765625 2.933594 -13.765625 C 2.730469 -13.765625 2.585938 -13.640625 2.566406 -13.4375 L 2.511719 -13.003906 C 1.984375 -12.929688 1.457031 -12.800781 0.890625 -12.636719 C 0.726562 -12.582031 0.636719 -12.472656 0.636719 -12.273438 C 0.636719 -12.238281 0.636719 -12.199219 0.65625 -12.183594 C 0.710938 -12.019531 0.835938 -11.929688 1 -11.929688 C 1.054688 -11.929688 1.09375 -11.929688 1.109375 -11.945312 C 1.546875 -12.074219 1.984375 -12.183594 2.421875 -12.253906 C 2.203125 -10.160156 2.074219 -8.066406 2.039062 -5.9375 C 1.421875 -5.628906 0.765625 -5.335938 0.0742188 -5.0625 C -0.0898438 -5.007812 -0.164062 -4.878906 -0.164062 -4.714844 C -0.164062 -4.660156 -0.164062 -4.605469 -0.144531 -4.589844 C -0.0742188 -4.425781 0.0351562 -4.351562 0.199219 -4.351562 C 0.382812 -4.351562 1.820312 -5.027344 2.019531 -5.117188 C 2.019531 -3.515625 2.039062 -1.929688 2.167969 -0.328125 C 2.183594 -0.128906 2.332031 0 2.53125 0 Z M 2.769531 -6.320312 C 2.824219 -8.339844 2.949219 -10.324219 3.167969 -12.347656 C 3.441406 -12.363281 3.679688 -12.382812 3.914062 -12.382812 C 5.972656 -12.382812 7.046875 -11.671875 7.046875 -10.636719 C 7.046875 -9.46875 5.683594 -7.867188 2.769531 -6.320312 Z M 2.769531 -6.320312 "/></g></g></g><g fill="#000000" fill-opacity="1"><g transform="translate(62.101175, 20.577075)"><g><path d="M 2.894531 -3.40625 C 3.167969 -3.898438 3.332031 -4.460938 3.332031 -5.027344 C 3.53125 -4.988281 3.734375 -4.972656 3.96875 -4.972656 C 4.390625 -4.972656 4.84375 -5.042969 5.335938 -5.171875 C 5.519531 -5.226562 5.609375 -5.355469 5.609375 -5.554688 L 5.609375 -5.628906 C 5.554688 -5.773438 5.410156 -5.898438 5.246094 -5.898438 C 5.191406 -5.898438 5.207031 -5.882812 5.152344 -5.882812 C 4.734375 -5.753906 4.351562 -5.699219 3.988281 -5.699219 C 3.695312 -5.699219 3.441406 -5.753906 3.222656 -5.808594 C 3.078125 -6.464844 2.476562 -7.449219 1.785156 -7.355469 C 1.730469 -7.394531 1.65625 -7.410156 1.585938 -7.410156 C 1.492188 -7.410156 1.402344 -7.394531 1.347656 -7.339844 C 0.820312 -6.882812 0.417969 -6.300781 0.21875 -5.589844 C 0.0898438 -5.191406 0.0351562 -4.808594 0.0351562 -4.441406 C 0.0351562 -3.203125 0.726562 -2.421875 1.511719 -2.421875 C 2.003906 -2.421875 2.476562 -2.730469 2.894531 -3.40625 Z M 2.257812 -3.789062 C 1.984375 -3.351562 1.730469 -3.132812 1.492188 -3.132812 C 1.074219 -3.132812 0.78125 -3.734375 0.78125 -4.515625 C 0.78125 -5.097656 0.964844 -5.789062 1.421875 -6.375 C 1.585938 -5.953125 1.984375 -5.535156 2.585938 -5.261719 C 2.585938 -5.191406 2.605469 -5.117188 2.605469 -5.027344 C 2.605469 -4.570312 2.457031 -4.132812 2.257812 -3.789062 Z M 2.257812 -3.789062 "/></g></g></g><g fill="#000000" fill-opacity="1"><g transform="translate(66.888257, 20.577075)"><g><path d="M 1.65625 -2.421875 C 2.785156 -2.421875 4.023438 -4.371094 4.550781 -5.335938 C 4.570312 -5.371094 4.589844 -5.425781 4.589844 -5.519531 C 4.589844 -5.664062 4.535156 -5.773438 4.40625 -5.84375 C 4.335938 -5.863281 4.28125 -5.882812 4.242188 -5.882812 C 4.097656 -5.882812 3.988281 -5.808594 3.914062 -5.683594 C 3.242188 -4.480469 2.222656 -3.152344 1.675781 -3.152344 C 1.621094 -3.152344 1.585938 -3.167969 1.53125 -3.1875 C 1.292969 -3.332031 0.910156 -3.550781 0.910156 -5.226562 C 0.910156 -6.738281 1.21875 -9.125 1.929688 -12.621094 C 1.964844 -12.855469 1.875 -13.003906 1.640625 -13.058594 C 1.4375 -13.113281 1.273438 -12.964844 1.21875 -12.765625 C 0.78125 -10.5625 0.183594 -7.574219 0.183594 -5.390625 C 0.183594 -3.660156 0.546875 -2.421875 1.65625 -2.421875 Z M 1.65625 -2.421875 "/></g></g></g><g fill="#000000" fill-opacity="1"><g transform="translate(70.601425, 20.577075)"><g><path d="M 1.65625 -2.421875 C 2.785156 -2.421875 4.023438 -4.371094 4.550781 -5.335938 C 4.570312 -5.371094 4.589844 -5.425781 4.589844 -5.519531 C 4.589844 -5.664062 4.535156 -5.773438 4.40625 -5.84375 C 4.335938 -5.863281 4.28125 -5.882812 4.242188 -5.882812 C 4.097656 -5.882812 3.988281 -5.808594 3.914062 -5.683594 C 3.242188 -4.480469 2.222656 -3.152344 1.675781 -3.152344 C 1.621094 -3.152344 1.585938 -3.167969 1.53125 -3.1875 C 1.292969 -3.332031 0.910156 -3.550781 0.910156 -5.226562 C 0.910156 -6.738281 1.21875 -9.125 1.929688 -12.621094 C 1.964844 -12.855469 1.875 -13.003906 1.640625 -13.058594 C 1.4375 -13.113281 1.273438 -12.964844 1.21875 -12.765625 C 0.78125 -10.5625 0.183594 -7.574219 0.183594 -5.390625 C 0.183594 -3.660156 0.546875 -2.421875 1.65625 -2.421875 Z M 1.65625 -2.421875 "/></g></g></g></svg>